<mxfile host="Electron" agent="Mozilla/5.0 (X11; Linux x86_64) AppleWebKit/537.36 (KHTML, like Gecko) draw.io/24.7.17 Chrome/128.0.6613.36 Electron/32.0.1 Safari/537.36" version="24.7.17">
  <diagram name="Page-1" id="lbGV1S6AnXvofU3HUzbX">
    <mxGraphModel dx="1434" dy="843" grid="1" gridSize="10" guides="1" tooltips="1" connect="1" arrows="1" fold="1" page="1" pageScale="1" pageWidth="1169" pageHeight="827" math="1" shadow="0">
      <root>
        <mxCell id="0" />
        <mxCell id="1" parent="0" />
        <mxCell id="Og-qgKN78IRizfEA-ZPS-1" value="$$0$$" style="rounded=0;whiteSpace=wrap;html=1;fillColor=#FFCCCC;" vertex="1" parent="1">
          <mxGeometry x="51" y="300" width="30" height="30" as="geometry" />
        </mxCell>
        <mxCell id="Og-qgKN78IRizfEA-ZPS-2" value="$$0$$" style="rounded=0;whiteSpace=wrap;html=1;fillColor=#CCFFE6;" vertex="1" parent="1">
          <mxGeometry x="81" y="300" width="30" height="30" as="geometry" />
        </mxCell>
        <mxCell id="Og-qgKN78IRizfEA-ZPS-3" value="$$1$$" style="rounded=0;whiteSpace=wrap;html=1;fillColor=#CCFFE6;" vertex="1" parent="1">
          <mxGeometry x="111" y="300" width="30" height="30" as="geometry" />
        </mxCell>
        <mxCell id="Og-qgKN78IRizfEA-ZPS-4" value="$$1$$" style="rounded=0;whiteSpace=wrap;html=1;fillColor=#CCFFE6;" vertex="1" parent="1">
          <mxGeometry x="141" y="300" width="30" height="30" as="geometry" />
        </mxCell>
        <mxCell id="Og-qgKN78IRizfEA-ZPS-5" value="$$1$$" style="rounded=0;whiteSpace=wrap;html=1;fillColor=#CCFFE6;" vertex="1" parent="1">
          <mxGeometry x="171" y="300" width="30" height="30" as="geometry" />
        </mxCell>
        <mxCell id="Og-qgKN78IRizfEA-ZPS-6" value="$$0$$" style="rounded=0;whiteSpace=wrap;html=1;fillColor=#CCFFE6;" vertex="1" parent="1">
          <mxGeometry x="201" y="300" width="30" height="30" as="geometry" />
        </mxCell>
        <mxCell id="Og-qgKN78IRizfEA-ZPS-7" value="$$1$$" style="rounded=0;whiteSpace=wrap;html=1;fillColor=#CCFFE6;" vertex="1" parent="1">
          <mxGeometry x="231" y="300" width="30" height="30" as="geometry" />
        </mxCell>
        <mxCell id="Og-qgKN78IRizfEA-ZPS-8" value="$$1$$" style="rounded=0;whiteSpace=wrap;html=1;fillColor=#CCFFE6;" vertex="1" parent="1">
          <mxGeometry x="261" y="300" width="30" height="30" as="geometry" />
        </mxCell>
        <mxCell id="Og-qgKN78IRizfEA-ZPS-9" value="$$0$$" style="rounded=0;whiteSpace=wrap;html=1;fillColor=#CCFFE6;" vertex="1" parent="1">
          <mxGeometry x="291" y="300" width="30" height="30" as="geometry" />
        </mxCell>
        <mxCell id="Og-qgKN78IRizfEA-ZPS-10" value="$$0$$" style="rounded=0;whiteSpace=wrap;html=1;fillColor=#CCE5FF;" vertex="1" parent="1">
          <mxGeometry x="321" y="300" width="30" height="30" as="geometry" />
        </mxCell>
        <mxCell id="Og-qgKN78IRizfEA-ZPS-11" value="$$0$$" style="rounded=0;whiteSpace=wrap;html=1;fillColor=#CCE5FF;" vertex="1" parent="1">
          <mxGeometry x="351" y="300" width="30" height="30" as="geometry" />
        </mxCell>
        <mxCell id="Og-qgKN78IRizfEA-ZPS-12" value="$$0$$" style="rounded=0;whiteSpace=wrap;html=1;fillColor=#CCE5FF;" vertex="1" parent="1">
          <mxGeometry x="381" y="300" width="30" height="30" as="geometry" />
        </mxCell>
        <mxCell id="Og-qgKN78IRizfEA-ZPS-13" value="$$1$$" style="rounded=0;whiteSpace=wrap;html=1;fillColor=#CCE5FF;" vertex="1" parent="1">
          <mxGeometry x="411" y="300" width="30" height="30" as="geometry" />
        </mxCell>
        <mxCell id="Og-qgKN78IRizfEA-ZPS-14" value="$$0$$" style="rounded=0;whiteSpace=wrap;html=1;fillColor=#CCE5FF;" vertex="1" parent="1">
          <mxGeometry x="441" y="300" width="30" height="30" as="geometry" />
        </mxCell>
        <mxCell id="Og-qgKN78IRizfEA-ZPS-15" value="$$1$$" style="rounded=0;whiteSpace=wrap;html=1;fillColor=#CCE5FF;" vertex="1" parent="1">
          <mxGeometry x="471" y="300" width="30" height="30" as="geometry" />
        </mxCell>
        <mxCell id="Og-qgKN78IRizfEA-ZPS-16" value="$$1$$" style="rounded=0;whiteSpace=wrap;html=1;fillColor=#CCE5FF;" vertex="1" parent="1">
          <mxGeometry x="501" y="300" width="30" height="30" as="geometry" />
        </mxCell>
        <mxCell id="Og-qgKN78IRizfEA-ZPS-17" value="$$1$$" style="rounded=0;whiteSpace=wrap;html=1;fillColor=#CCE5FF;" vertex="1" parent="1">
          <mxGeometry x="531" y="300" width="30" height="30" as="geometry" />
        </mxCell>
        <mxCell id="Og-qgKN78IRizfEA-ZPS-18" value="$$1$$" style="rounded=0;whiteSpace=wrap;html=1;fillColor=#CCE5FF;" vertex="1" parent="1">
          <mxGeometry x="561" y="300" width="30" height="30" as="geometry" />
        </mxCell>
        <mxCell id="Og-qgKN78IRizfEA-ZPS-19" value="$$1$$" style="rounded=0;whiteSpace=wrap;html=1;fillColor=#CCE5FF;" vertex="1" parent="1">
          <mxGeometry x="591" y="300" width="30" height="30" as="geometry" />
        </mxCell>
        <mxCell id="Og-qgKN78IRizfEA-ZPS-20" value="$$1$$" style="rounded=0;whiteSpace=wrap;html=1;fillColor=#CCE5FF;" vertex="1" parent="1">
          <mxGeometry x="621" y="300" width="30" height="30" as="geometry" />
        </mxCell>
        <mxCell id="Og-qgKN78IRizfEA-ZPS-21" value="$$0$$" style="rounded=0;whiteSpace=wrap;html=1;fillColor=#CCE5FF;" vertex="1" parent="1">
          <mxGeometry x="651" y="300" width="30" height="30" as="geometry" />
        </mxCell>
        <mxCell id="Og-qgKN78IRizfEA-ZPS-22" value="$$1$$" style="rounded=0;whiteSpace=wrap;html=1;fillColor=#CCE5FF;" vertex="1" parent="1">
          <mxGeometry x="681" y="300" width="30" height="30" as="geometry" />
        </mxCell>
        <mxCell id="Og-qgKN78IRizfEA-ZPS-23" value="$$1$$" style="rounded=0;whiteSpace=wrap;html=1;fillColor=#CCE5FF;" vertex="1" parent="1">
          <mxGeometry x="711" y="300" width="30" height="30" as="geometry" />
        </mxCell>
        <mxCell id="Og-qgKN78IRizfEA-ZPS-24" value="$$1$$" style="rounded=0;whiteSpace=wrap;html=1;fillColor=#CCE5FF;" vertex="1" parent="1">
          <mxGeometry x="741" y="300" width="30" height="30" as="geometry" />
        </mxCell>
        <mxCell id="Og-qgKN78IRizfEA-ZPS-25" value="$$0$$" style="rounded=0;whiteSpace=wrap;html=1;fillColor=#CCE5FF;" vertex="1" parent="1">
          <mxGeometry x="771" y="300" width="30" height="30" as="geometry" />
        </mxCell>
        <mxCell id="Og-qgKN78IRizfEA-ZPS-26" value="$$1$$" style="rounded=0;whiteSpace=wrap;html=1;fillColor=#CCE5FF;" vertex="1" parent="1">
          <mxGeometry x="801" y="300" width="30" height="30" as="geometry" />
        </mxCell>
        <mxCell id="Og-qgKN78IRizfEA-ZPS-27" value="$$0$$" style="rounded=0;whiteSpace=wrap;html=1;fillColor=#CCE5FF;" vertex="1" parent="1">
          <mxGeometry x="831" y="300" width="30" height="30" as="geometry" />
        </mxCell>
        <mxCell id="Og-qgKN78IRizfEA-ZPS-28" value="$$0$$" style="rounded=0;whiteSpace=wrap;html=1;fillColor=#CCE5FF;" vertex="1" parent="1">
          <mxGeometry x="861" y="300" width="30" height="30" as="geometry" />
        </mxCell>
        <mxCell id="Og-qgKN78IRizfEA-ZPS-29" value="$$0$$" style="rounded=0;whiteSpace=wrap;html=1;fillColor=#CCE5FF;" vertex="1" parent="1">
          <mxGeometry x="891" y="300" width="30" height="30" as="geometry" />
        </mxCell>
        <mxCell id="Og-qgKN78IRizfEA-ZPS-30" value="$$1$$" style="rounded=0;whiteSpace=wrap;html=1;fillColor=#CCE5FF;" vertex="1" parent="1">
          <mxGeometry x="921" y="300" width="30" height="30" as="geometry" />
        </mxCell>
        <mxCell id="Og-qgKN78IRizfEA-ZPS-31" value="$$0$$" style="rounded=0;whiteSpace=wrap;html=1;fillColor=#CCE5FF;" vertex="1" parent="1">
          <mxGeometry x="951" y="300" width="30" height="30" as="geometry" />
        </mxCell>
        <mxCell id="Og-qgKN78IRizfEA-ZPS-32" value="$$1$$" style="rounded=0;whiteSpace=wrap;html=1;fillColor=#CCE5FF;" vertex="1" parent="1">
          <mxGeometry x="981" y="300" width="30" height="30" as="geometry" />
        </mxCell>
        <mxCell id="Og-qgKN78IRizfEA-ZPS-33" value="$$\text{sign}$$" style="text;html=1;align=center;verticalAlign=middle;whiteSpace=wrap;rounded=0;" vertex="1" parent="1">
          <mxGeometry x="49" y="270" width="34" height="30" as="geometry" />
        </mxCell>
        <mxCell id="Og-qgKN78IRizfEA-ZPS-34" value="$$\text{exponent}$$" style="text;html=1;align=center;verticalAlign=middle;whiteSpace=wrap;rounded=0;" vertex="1" parent="1">
          <mxGeometry x="160" y="270" width="79" height="30" as="geometry" />
        </mxCell>
        <mxCell id="Og-qgKN78IRizfEA-ZPS-35" value="$$\text{mantissa}$$" style="text;html=1;align=center;verticalAlign=middle;whiteSpace=wrap;rounded=0;" vertex="1" parent="1">
          <mxGeometry x="610" y="270" width="79" height="30" as="geometry" />
        </mxCell>
        <mxCell id="Og-qgKN78IRizfEA-ZPS-36" value="$$\text{index}$$" style="text;html=1;align=center;verticalAlign=middle;whiteSpace=wrap;rounded=0;" vertex="1" parent="1">
          <mxGeometry x="10" y="330" width="39" height="30" as="geometry" />
        </mxCell>
        <mxCell id="Og-qgKN78IRizfEA-ZPS-37" value="$$31$$" style="text;html=1;align=center;verticalAlign=middle;whiteSpace=wrap;rounded=0;" vertex="1" parent="1">
          <mxGeometry x="51" y="330" width="29" height="30" as="geometry" />
        </mxCell>
        <mxCell id="Og-qgKN78IRizfEA-ZPS-38" value="$$0$$" style="text;html=1;align=center;verticalAlign=middle;whiteSpace=wrap;rounded=0;" vertex="1" parent="1">
          <mxGeometry x="981" y="330" width="29" height="30" as="geometry" />
        </mxCell>
        <mxCell id="Og-qgKN78IRizfEA-ZPS-39" value="$$30$$" style="text;html=1;align=center;verticalAlign=middle;whiteSpace=wrap;rounded=0;" vertex="1" parent="1">
          <mxGeometry x="81" y="330" width="29" height="30" as="geometry" />
        </mxCell>
        <mxCell id="Og-qgKN78IRizfEA-ZPS-40" value="$$1$$" style="text;html=1;align=center;verticalAlign=middle;whiteSpace=wrap;rounded=0;" vertex="1" parent="1">
          <mxGeometry x="952" y="330" width="29" height="30" as="geometry" />
        </mxCell>
        <mxCell id="Og-qgKN78IRizfEA-ZPS-41" value="&lt;b&gt;$$\cdots$$&lt;/b&gt;" style="text;html=1;align=center;verticalAlign=middle;whiteSpace=wrap;rounded=0;" vertex="1" parent="1">
          <mxGeometry x="111" y="330" width="30" height="30" as="geometry" />
        </mxCell>
        <mxCell id="Og-qgKN78IRizfEA-ZPS-42" value="&lt;b&gt;$$\cdots$$&lt;/b&gt;" style="text;html=1;align=center;verticalAlign=middle;whiteSpace=wrap;rounded=0;" vertex="1" parent="1">
          <mxGeometry x="921" y="330" width="30" height="30" as="geometry" />
        </mxCell>
        <mxCell id="Og-qgKN78IRizfEA-ZPS-43" value="$$\text{IEEE-754 Floating-Point}~\texttt{binary32}$$" style="text;html=1;align=center;verticalAlign=middle;whiteSpace=wrap;rounded=0;" vertex="1" parent="1">
          <mxGeometry x="390" y="230" width="250" height="30" as="geometry" />
        </mxCell>
        <mxCell id="Og-qgKN78IRizfEA-ZPS-44" value="$$=0.00213571$$" style="text;html=1;align=center;verticalAlign=middle;whiteSpace=wrap;rounded=0;" vertex="1" parent="1">
          <mxGeometry x="1011" y="300" width="90" height="30" as="geometry" />
        </mxCell>
      </root>
    </mxGraphModel>
  </diagram>
</mxfile>
